<svg width="627" height="181" viewBox="0 0 627 181" fill="none" xmlns="http://www.w3.org/2000/svg">
<circle cx="90.5" cy="90.5" r="90.5" fill="#FC8EAC"/>
<path d="M73.6333 63.8C71.02 57.64 62.1222 50.0333 58 47V48.8667C58 48.2444 58.0467 59.5533 58.2333 109.767C60.2867 116.673 70.1333 127.111 74.8 131.467C75.5 111.478 76.2467 69.96 73.6333 63.8Z" fill="white"/>
<path d="M118.433 86.4333C110.407 70.7533 89.5778 70.5667 80.1667 72.4333V74.0667V90.4C93.2333 82.1867 102.256 91.3333 105.133 96.9333C105.522 96.5444 108.727 93.9 118.433 86.4333Z" fill="white"/>
<path d="M80.6333 134.5C122.447 133.38 124.811 106.5 120.767 93.2L119.367 94.6C119.6 94.3667 112.18 102.02 80.6333 134.5Z" fill="white"/>
<path d="M220.32 57.896H254.304C260.768 57.896 265.856 59.496 269.568 62.696C273.344 65.896 275.232 70.472 275.232 76.424C275.232 79.24 274.592 81.864 273.312 84.296C272.032 86.728 270.208 88.648 267.84 90.056C271.104 91.336 273.504 93.192 275.04 95.624C276.576 97.992 277.344 101.096 277.344 104.936C277.344 109.032 276.384 112.616 274.464 115.688C272.544 118.696 269.952 121 266.688 122.6C263.488 124.2 259.904 125 255.936 125H220.32V57.896ZM250.56 84.488C255.552 84.488 258.048 82.152 258.048 77.48C258.048 74.856 257.408 73.064 256.128 72.104C254.848 71.08 252.896 70.568 250.272 70.568H237.312V84.488H250.56ZM251.616 112.328C254.496 112.328 256.64 111.784 258.048 110.696C259.456 109.608 260.16 107.688 260.16 104.936C260.16 102.184 259.424 100.2 257.952 98.984C256.48 97.704 254.24 97.064 251.232 97.064H237.312V112.328H251.616ZM293.094 72.776C290.534 72.776 288.39 71.944 286.662 70.28C284.934 68.616 284.07 66.504 284.07 63.944C284.07 61.448 284.934 59.368 286.662 57.704C288.39 55.976 290.534 55.112 293.094 55.112C295.59 55.112 297.702 55.976 299.43 57.704C301.222 59.368 302.118 61.448 302.118 63.944C302.118 66.44 301.222 68.552 299.43 70.28C297.702 71.944 295.59 72.776 293.094 72.776ZM284.646 78.92H301.542V125H284.646V78.92ZM308.869 115.784L330.757 90.632H309.445V78.92H353.029V88.136L331.333 113.288H353.797V125H308.869V115.784ZM360.476 54.056H377.372V125H360.476V54.056ZM404.504 126.44C398.168 126.44 393.4 124.68 390.2 121.16C387.064 117.64 385.496 113 385.496 107.24V78.92H402.392V105.32C402.392 110.632 404.792 113.288 409.592 113.288C411.768 113.288 413.752 112.776 415.544 111.752C417.336 110.728 418.808 109.224 419.96 107.24V78.92H436.856V125H420.536V120.008C418.552 122.12 416.152 123.72 413.336 124.808C410.52 125.896 407.576 126.44 404.504 126.44ZM465.476 126.44C459.78 126.44 455.46 124.872 452.516 121.736C449.636 118.536 448.196 114.184 448.196 108.68V90.632H441.668V78.92H448.196V65.096H465.092V78.92H475.652V90.632H465.092V106.376C465.092 108.872 465.54 110.664 466.436 111.752C467.396 112.84 469.06 113.384 471.428 113.384C473.54 113.384 475.652 112.808 477.764 111.656V124.232C476.1 125 474.308 125.544 472.388 125.864C470.532 126.248 468.228 126.44 465.476 126.44ZM491.563 72.776C489.003 72.776 486.859 71.944 485.131 70.28C483.403 68.616 482.539 66.504 482.539 63.944C482.539 61.448 483.403 59.368 485.131 57.704C486.859 55.976 489.003 55.112 491.563 55.112C494.059 55.112 496.171 55.976 497.899 57.704C499.691 59.368 500.587 61.448 500.587 63.944C500.587 66.44 499.691 68.552 497.899 70.28C496.171 71.944 494.059 72.776 491.563 72.776ZM483.115 78.92H500.011V125H483.115V78.92ZM535.754 126.44C530.058 126.44 525.066 125.416 520.778 123.368C516.49 121.256 513.162 118.376 510.794 114.728C508.49 111.016 507.338 106.76 507.338 101.96C507.338 97.16 508.49 92.936 510.794 89.288C513.162 85.576 516.49 82.696 520.778 80.648C525.066 78.536 530.058 77.48 535.754 77.48C541.45 77.48 546.442 78.536 550.73 80.648C555.018 82.696 558.314 85.576 560.618 89.288C562.986 92.936 564.17 97.16 564.17 101.96C564.17 106.76 562.986 111.016 560.618 114.728C558.314 118.376 555.018 121.256 550.73 123.368C546.442 125.416 541.45 126.44 535.754 126.44ZM535.754 113.288C539.146 113.288 541.834 112.296 543.818 110.312C545.866 108.264 546.89 105.48 546.89 101.96C546.89 98.44 545.866 95.688 543.818 93.704C541.834 91.656 539.146 90.632 535.754 90.632C532.362 90.632 529.642 91.656 527.594 93.704C525.61 95.688 524.618 98.44 524.618 101.96C524.618 105.48 525.61 108.264 527.594 110.312C529.642 112.296 532.362 113.288 535.754 113.288ZM570.851 78.92H587.171V84.008C589.155 81.832 591.555 80.2 594.371 79.112C597.187 78.024 600.131 77.48 603.203 77.48C609.667 77.48 614.435 79.176 617.507 82.568C620.643 85.896 622.211 90.44 622.211 96.2V125H605.315V98.408C605.315 93.224 602.947 90.632 598.211 90.632C596.035 90.632 594.051 91.144 592.259 92.168C590.467 93.128 588.963 94.632 587.747 96.68V125H570.851V78.92Z" fill="#FC8EAC"/>
</svg>
